<?xml version="1.0" standalone="no"?><!DOCTYPE svg PUBLIC "-//W3C//DTD SVG 1.1//EN" "http://www.w3.org/Graphics/SVG/1.1/DTD/svg11.dtd"><svg id="svg" version="1.1" viewBox="273.5111999511719 53.85060501098633 796.6866455078125 895.2802124023438" xmlns="http://www.w3.org/2000/svg" xmlns:xlink="http://www.w3.org/1999/xlink"><defs xmlns="http://www.w3.org/1999/xhtml"><style type="text/css"><![CDATA[]]></style></defs><defs><linearGradient id="gradient1"><stop offset="0%" style="stop-color:rgb(255,255,255);stop-opacity:0"/><stop offset="100%" style="stop-color:rgb(255,255,255);stop-opacity:1"/></linearGradient></defs><g id="viewport" transform="matrix(0.16442103683948517,0,0,0.16442103683948517,743.0000050383186,431.5000022491235)"><g id="tree_bin"><g id="tree"><path id="line_origin" vector-effect="non-scaling-stroke" style="stroke:#888888;stroke-width:1;" d="M 0 0 0 0"/><path id="line0" vector-effect="non-scaling-stroke" style="stroke:#888888;stroke-width:1;" d="M -28.254053503159305 57.42567771163534 0 0"/><path id="line2" vector-effect="non-scaling-stroke" style="stroke: rgb(20, 2, 122); stroke-width: 3;" d="M 285.84002610197246 32.20643608203372 219.0044372503286 24.675873796163916"/><path id="line4" vector-effect="non-scaling-stroke" style="stroke: rgb(20, 2, 122); stroke-width: 3;" d="M 318.52209563444967 111.45570175899888 271.5068136292155 95.00434305858268"/><path id="line6" vector-effect="non-scaling-stroke" style="stroke: rgb(20, 2, 122); stroke-width: 3;" d="M 325.15047422287887 204.3055839651335 285.73485483050433 179.53910882296103"/><path id="line8" vector-effect="non-scaling-stroke" style="stroke: rgb(20, 2, 122); stroke-width: 3;" d="M 294.00003583713334 294.0000358371333 271.53600362262944 271.5360036226294"/><path id="line11" vector-effect="non-scaling-stroke" style="stroke: rgb(20, 2, 122); stroke-width: 3;" d="M 240.18187359353425 382.24726208171 233.10347548243686 370.98205602177956"/><path id="line13" vector-effect="non-scaling-stroke" style="stroke: rgb(20, 2, 122); stroke-width: 3;" d="M 151.23507044531715 432.2049999364583 149.10199480579683 426.1090199899506"/><path id="line14" vector-effect="non-scaling-stroke" style="stroke: rgb(20, 2, 122); stroke-width: 3;" d="M 51.26863123147455 455.0216873450375 50.54551940278697 448.6038923595809"/><path id="line12" vector-effect="non-scaling-stroke" style="stroke:#888888;stroke-width:1;" d="M 100.4553995718904 440.1238626440469 97.49487927974481 427.15297574331123"/><path id="arc12" vector-effect="non-scaling-stroke" style="stroke:#888888;stroke-width:1;" fill="none" d="M 149.10199480579683 426.1090199899506 A 451.4424678426521 451.4424678426521 0  0  1 50.54551940278697 448.6038923595809"/><path id="line10" vector-effect="non-scaling-stroke" style="stroke:#888888;stroke-width:1;" d="M 167.66815767597623 404.7867402394523 159.1116728378987 384.1295584971258"/><path id="arc10" vector-effect="non-scaling-stroke" style="stroke:#888888;stroke-width:1;" fill="none" d="M 233.10347548243686 370.98205602177956 A 438.1380104169665 438.1380104169665 0  0  1 97.49487927974481 427.15297574331123"/><path id="line16" vector-effect="non-scaling-stroke" style="stroke: rgb(20, 2, 122); stroke-width: 3;" d="M -50.73484765568219 450.2842270793736 -49.05589279728127 435.38309056967233"/><path id="line19" vector-effect="non-scaling-stroke" style="stroke: rgb(20, 2, 122); stroke-width: 3;" d="M -157.47251755343794 450.03059964048856 -154.02879164701912 440.1889964278059"/><path id="line21" vector-effect="non-scaling-stroke" style="stroke: rgb(20, 2, 122); stroke-width: 3;" d="M -257.5810907815296 409.9379576074332 -253.66558210531053 403.70646124699255"/><path id="line22" vector-effect="non-scaling-stroke" style="stroke: rgb(20, 2, 122); stroke-width: 3;" d="M -342.3427722441035 342.34277224410357 -337.1387951551968 337.1387951551969"/><path id="line20" vector-effect="non-scaling-stroke" style="stroke:#888888;stroke-width:1;" d="M -297.2713686007638 372.76650574806797 -290.77041764632423 364.6145710941102"/><path id="arc20" vector-effect="non-scaling-stroke" style="stroke:#888888;stroke-width:1;" fill="none" d="M -253.66558210531053 403.70646124699255 A 476.78625651060406 476.78625651060406 0  0  1 -337.1387951551968 337.1387951551969"/><path id="line18" vector-effect="non-scaling-stroke" style="stroke:#888888;stroke-width:1;" d="M -225.58691803410375 408.16879307981674 -219.18920089275917 396.59299556990135"/><path id="arc18" vector-effect="non-scaling-stroke" style="stroke:#888888;stroke-width:1;" fill="none" d="M -154.02879164701912 440.1889964278059 A 466.3595407326409 466.3595407326409 0  0  1 -290.77041764632423 364.6145710941102"/><path id="line24" vector-effect="non-scaling-stroke" style="stroke: rgb(20, 2, 122); stroke-width: 3;" d="M -404.5230940996107 254.1787065355857 -394.8779086793157 248.11823485872566"/><path id="line26" vector-effect="non-scaling-stroke" style="stroke: rgb(20, 2, 122); stroke-width: 3;" d="M -457.73888691744537 160.16976392845612 -450.9409387299713 157.79105897787156"/><path id="line28" vector-effect="non-scaling-stroke" style="stroke: rgb(20, 2, 122); stroke-width: 3;" d="M -487.4432360251888 54.921662437381805 -481.9035428077793 54.29748891643157"/><path id="line29" vector-effect="non-scaling-stroke" style="stroke: rgb(20, 2, 122); stroke-width: 3;" d="M -487.4432360251888 -54.921662437381684 -481.9035428077793 -54.29748891643145"/><path id="line27" vector-effect="non-scaling-stroke" style="stroke:#888888;stroke-width:1;" d="M -484.9528243791546 5.938959241134002e-14 -477.7507179649507 5.850758875461268e-14"/><path id="arc27" vector-effect="non-scaling-stroke" style="stroke:#888888;stroke-width:1;" fill="none" d="M -481.9035428077793 54.29748891643157 A 484.9528243791546 484.9528243791546 0  0  1 -481.9035428077793 -54.29748891643145"/><path id="line25" vector-effect="non-scaling-stroke" style="stroke:#888888;stroke-width:1;" d="M -471.0005869179244 80.02621844743523 -459.77035541778537 78.11812537025611"/><path id="arc25" vector-effect="non-scaling-stroke" style="stroke:#888888;stroke-width:1;" fill="none" d="M -450.9409387299713 157.79105897787156 A 477.7507179649507 477.7507179649507 0  0  1 -477.7507179649507 5.850758875461268e-14"/><path id="line23" vector-effect="non-scaling-stroke" style="stroke:#888888;stroke-width:1;" d="M -435.69590672574606 166.31385418776674 -423.33943146927055 161.59714009347115"/><path id="arc23" vector-effect="non-scaling-stroke" style="stroke:#888888;stroke-width:1;" fill="none" d="M -394.8779086793157 248.11823485872566 A 466.3595407326409 466.3595407326409 0  0  1 -459.77035541778537 78.11812537025611"/><path id="line17" vector-effect="non-scaling-stroke" style="stroke:#888888;stroke-width:1;" d="M -342.07678067069946 297.17568212941694 -330.75652448798695 287.34132609279425"/><path id="arc17" vector-effect="non-scaling-stroke" style="stroke:#888888;stroke-width:1;" fill="none" d="M -219.18920089275917 396.59299556990135 A 453.13343500906456 453.13343500906456 0  0  1 -423.33943146927055 161.59714009347115"/><path id="line15" vector-effect="non-scaling-stroke" style="stroke:#888888;stroke-width:1;" d="M -203.82212610110938 387.84205172178184 -193.42062258474584 368.0495957115028"/><path id="arc15" vector-effect="non-scaling-stroke" style="stroke:#888888;stroke-width:1;" fill="none" d="M -49.05589279728127 435.38309056967233 A 438.1380104169665 438.1380104169665 0  0  1 -330.75652448798695 287.34132609279425"/><path id="line9" vector-effect="non-scaling-stroke" style="stroke:#888888;stroke-width:1;" d="M -18.945113063259242 415.34699329053973 -17.497549871817206 383.61105077302"/><path id="arc9" vector-effect="non-scaling-stroke" style="stroke:#888888;stroke-width:1;" fill="none" d="M 159.1116728378987 384.1295584971258 A 415.7788380190499 415.7788380190499 0  0  1 -193.42062258474584 368.0495957115028"/><path id="line7" vector-effect="non-scaling-stroke" style="stroke:#888888;stroke-width:1;" d="M 138.83114940266992 358.0356329783822 122.00166220065961 314.633585750518"/><path id="arc7" vector-effect="non-scaling-stroke" style="stroke:#888888;stroke-width:1;" fill="none" d="M 271.53600362262944 271.5360036226294 A 384.0098989957124 384.0098989957124 0  0  1 -17.497549871817206 383.61105077302"/><path id="line5" vector-effect="non-scaling-stroke" style="stroke:#888888;stroke-width:1;" d="M 214.7670744184469 260.2956062012836 183.06649631848816 221.8748137413424"/><path id="arc5" vector-effect="non-scaling-stroke" style="stroke:#888888;stroke-width:1;" fill="none" d="M 285.73485483050433 179.53910882296103 A 337.4591810307617 337.4591810307617 0  0  1 122.00166220065961 314.633585750518"/><path id="line3" vector-effect="non-scaling-stroke" style="stroke:#888888;stroke-width:1;" d="M 235.97299127658448 164.49474895893613 180.79739519184318 126.0323140102641"/><path id="arc3" vector-effect="non-scaling-stroke" style="stroke:#888888;stroke-width:1;" fill="none" d="M 271.5068136292155 95.00434305858268 A 287.6487007568128 287.6487007568128 0  0  1 183.06649631848816 221.8748137413424"/><path id="line1" vector-effect="non-scaling-stroke" style="stroke:#888888;stroke-width:1;" d="M 206.2247761527412 77.7379185705992 59.886444126789144 22.574627568333486"/><path id="arc1" vector-effect="non-scaling-stroke" style="stroke:#888888;stroke-width:1;" fill="none" d="M 219.0044372503286 24.675873796163916 A 220.39020459842885 220.39020459842885 0  0  1 180.79739519184318 126.0323140102641"/><path id="line31" vector-effect="non-scaling-stroke" style="stroke: rgb(136, 136, 136); stroke-width: 1;" d="M -348.7520024985194 -122.0336036685443 -208.02264028370752 -72.7902700388764"/><path id="line33" vector-effect="non-scaling-stroke" style="stroke: rgb(136, 136, 136); stroke-width: 1;" d="M -385.526336832454 -242.24225281769873 -312.85303020273244 -196.57858775570347"/><path id="line35" vector-effect="non-scaling-stroke" style="stroke: rgb(136, 136, 136); stroke-width: 1;" d="M -374.2449982408661 -374.244998240866 -321.9564143184949 -321.9564143184948"/><path id="line37" vector-effect="non-scaling-stroke" style="stroke: rgb(136, 136, 136); stroke-width: 1;" d="M -312.1058066477283 -496.7135458056869 -281.5845482424211 -448.13924131649446"/><path id="line39" vector-effect="non-scaling-stroke" style="stroke: rgb(136, 136, 136); stroke-width: 1;" d="M -211.37859965130704 -604.0853313973552 -193.7515003334597 -553.7099757532103"/><path id="line40" vector-effect="non-scaling-stroke" style="stroke: rgb(136, 136, 136); stroke-width: 1;" d="M -71.65726470611715 -635.9758143316752 -65.68168475666319 -582.9410754249641"/><path id="line38" vector-effect="non-scaling-stroke" style="stroke:#888888;stroke-width:1;" d="M -130.53738421811008 -571.9216488747221 -117.77195291112156 -515.9926399902544"/><path id="arc38" vector-effect="non-scaling-stroke" style="stroke:#888888;stroke-width:1;" fill="none" d="M -193.7515003334597 -553.7099757532103 A 586.6296797214469 586.6296797214469 0  0  1 -65.68168475666319 -582.9410754249641"/><path id="line36" vector-effect="non-scaling-stroke" style="stroke:#888888;stroke-width:1;" d="M -202.53993354717733 -488.97465449174007 -174.24155584622287 -420.6563272529396"/><path id="arc36" vector-effect="non-scaling-stroke" style="stroke:#888888;stroke-width:1;" fill="none" d="M -281.5845482424211 -448.13924131649446 A 529.2623521625278 529.2623521625278 0  0  1 -117.77195291112156 -515.9926399902544"/><path id="line34" vector-effect="non-scaling-stroke" style="stroke:#888888;stroke-width:1;" d="M -252.9595315504304 -378.5806926395368 -205.2756151873717 -307.2166686241239"/><path id="arc34" vector-effect="non-scaling-stroke" style="stroke:#888888;stroke-width:1;" fill="none" d="M -321.9564143184949 -321.9564143184948 A 455.3151276222267 455.3151276222267 0  0  1 -174.24155584622287 -420.6563272529396"/><path id="line32" vector-effect="non-scaling-stroke" style="stroke:#888888;stroke-width:1;" d="M -264.90473670360797 -257.5764743586859 -158.00965258394132 -153.63851071017152"/><path id="arc32" vector-effect="non-scaling-stroke" style="stroke:#888888;stroke-width:1;" fill="none" d="M -312.85303020273244 -196.57858775570347 A 369.4863457166701 369.4863457166701 0  0  1 -205.2756151873717 -307.2166686241239"/><path id="line30" vector-effect="non-scaling-stroke" style="stroke:#888888;stroke-width:1;" d="M -187.42737089442934 -115.94318834040814 -54.4277898334915 -33.66920987848214"/><path id="arc30" vector-effect="non-scaling-stroke" style="stroke:#888888;stroke-width:1;" fill="none" d="M -208.02264028370752 -72.7902700388764 A 220.39020459842885 220.39020459842885 0  0  1 -158.00965258394132 -153.63851071017152"/><path id="arc0" vector-effect="non-scaling-stroke" style="stroke:#888888;stroke-width:1;" fill="none" d="M 59.886444126789144 22.574627568333486 A 64 64 0  1  1 -54.4277898334915 -33.66920987848214"/></g><g id="guide_lines"/><g id="layer_background_1"/><g id="layer_1"/><g id="event_catcher_1"><path id="path_event" class="path_event" fill="#ffffff" shape-rendering="auto" stroke-width="0" d="M 655 0 A 655 655 0 1 1 -1.2032154801622745e-13 -655 L -1.2950639900983258e-13 -705 A 705 705 0 1 0 705 0 Z" fill-opacity="0"/></g><g id="layer_background_2"/><g id="layer_2"><path id="path_categorical_2_0" class="path_categorical_2_0" fill="#64db6e" shape-rendering="auto" stroke-width="0" d="M 720 0 A 720 720 0 1 1 -701.948096770913 -160.2150724485463 L -789.6916088672772 -180.24195650461456 A 810 810 0 1 0 810 0 Z" fill-opacity="1" pointer-events="none"/><path id="path_categorical_2_1" class="path_categorical_2_1" fill="#FFFFFF" shape-rendering="auto" stroke-width="0" d="M -701.948096770913 -160.2150724485463 A 720 720 0 0 1 -648.6975848897417 -312.39629216464175 L -729.7847830009595 -351.445828685222 A 810 810 0 0 0 -789.6916088672772 -180.24195650461456 Z" fill-opacity="1" pointer-events="none"/><path id="path_categorical_2_2" class="path_categorical_2_2" fill="#aca5ef" shape-rendering="auto" stroke-width="0" d="M -648.6975848897417 -312.39629216464175 A 720 720 0 0 1 -562.9186673769815 -448.912657338288 L -633.2835007991042 -505.026739505574 A 810 810 0 0 0 -729.7847830009595 -351.445828685222 Z" fill-opacity="1" pointer-events="none"/><path id="path_categorical_2_3" class="path_categorical_2_3" fill="#FFFFFF" shape-rendering="auto" stroke-width="0" d="M -562.9186673769815 -448.912657338288 A 720 720 0 0 1 -1.3226185430791414e-13 -720 L -1.487945860964034e-13 -810 A 810 810 0 0 0 -633.2835007991042 -505.026739505574 Z" fill-opacity="1" pointer-events="none"/></g><g id="event_catcher_2"><path id="path_event" class="path_event" fill="#ffffff" shape-rendering="auto" stroke-width="0" d="M 720 0 A 720 720 0 1 1 -1.3226185430791414e-13 -720 L -1.487945860964034e-13 -810 A 810 810 0 1 0 810 0 Z" fill-opacity="0"/></g><g id="layer_background_3"><path id="path_all" class="path_all" fill="#414141" shape-rendering="auto" stroke-width="0" d="M 825 0 A 825 825 0 1 1 -1.5155004139448496e-13 -825 L -1.6624580298425318e-13 -905 A 905 905 0 1 0 905 0 Z" fill-opacity="0.3" pointer-events="none"/></g><g id="layer_3"><path shape-rendering="auto" pointer-events="none" fill="#414141" stroke-width="0" d="M 825 0 L 825.1205466722106 0 A 825.1205466722106 825.1205466722106 0 0 1 804.4330518654632 183.606594672045 L 805.9164153254925 183.9451627019455 A 826.642057587525 826.642057587525 0 0 1 744.7787587851587 358.6665468579071 L 743.6749084072454 358.134960532943 A 825.4168760998635 825.4168760998635 0 0 1 645.3368998952864 514.6390045303586 L 645.656444020123 514.8938324664896 A 825.8255883761047 825.8255883761047 0 0 1 514.8938324664896 645.656444020123 L 516.4315181660877 647.58464089921 A 828.291844752735 828.291844752735 0 0 1 359.38236268189667 746.2651656596779 L 366.6810764610352 761.4211009895165 A 845.1136638741034 845.1136638741034 0 0 1 188.0554817845083 823.9248998771111 L 185.47479678874413 812.6181801443363 A 833.5161707758998 833.5161707758998 0 0 1 5.1038145528913215e-14 833.5161707758998 L 5.0723501985039276e-14 828.3776517499568 A 828.3776517499568 828.3776517499568 0 0 1 -184.3313687359389 807.6084945186672 L -185.22744635694445 811.5344670942242 A 832.4045880254512 832.4045880254512 0 0 1 -361.16681511109323 749.9706193100703 L -392.66478390139 815.3768254516893 A 905 905 0 0 1 -564.2582706821538 707.5574916335671 L -528.7588331138138 663.0426049135353 A 848.0633228282004 848.0633228282004 0 0 1 -663.0426049135351 528.7588331138139 L -651.5232632878932 519.5724647099191 A 833.3295318720234 833.3295318720234 0 0 1 -750.8039649203897 361.5681332057179 L -755.9057615206555 364.0250289587245 A 838.9920988951698 838.9920988951698 0 0 1 -817.9568153129139 186.69330542812176 L -835.8148382589344 190.7692826310605 A 857.3093741756112 857.3093741756112 0 0 1 -857.3093741756112 1.0499011809631828e-13 L -848.5806834379686 1.0392116177905817e-13 A 848.5806834379686 848.5806834379686 0 0 1 -827.3049940220037 -188.82696621590424 L -804.468952664998 -183.61478879526413 A 825.1573707276984 825.1573707276984 0 0 1 -743.4411021458712 -358.0223653717468 L -743.3850762813653 -357.995384737404 A 825.0951867094689 825.0951867094689 0 0 1 -645.0853930023 -514.4384344760814 L -645.1846648914864 -514.5176011659715 A 825.2221602215523 825.2221602215523 0 0 1 -514.5176011659718 -645.1846648914861 L -514.6897426893378 -645.4005235342519 A 825.4982537885244 825.4982537885244 0 0 1 -358.17026898878004 -743.7482271712706 L -358.0843906847754 -743.5698990355037 A 825.3003244902767 825.3003244902767 0 0 1 -183.64659900002584 -804.608322278287 L -183.6369361188711 -804.5659864297788 A 825.2568998965409 825.2568998965409 0 0 1 -1.5159723313988495e-13 -825.2568998965409 L -1.5155004139448496e-13 -825 A 825 825 1 1 0 825 0 Z"/></g><g id="event_catcher_3"><path id="path_event" class="path_event" fill="#ffffff" shape-rendering="auto" stroke-width="0" d="M 825 0 A 825 825 0 1 1 -1.5155004139448496e-13 -825 L -1.6624580298425318e-13 -905 A 905 905 0 1 0 905 0 Z" fill-opacity="0"/></g><g id="layer_background_4"><path id="path_all" class="path_all" fill="#004a0f" shape-rendering="auto" stroke-width="0" d="M 920 0 A 920 920 0 1 1 -1.6900125828233473e-13 -920 L -2.0206672185931327e-13 -1100 A 1100 1100 0 1 0 1100 0 Z" fill-opacity="0.3" pointer-events="none"/></g><g id="layer_4"><path shape-rendering="auto" pointer-events="none" fill="#004a0f" stroke-width="0" d="M 920 0 L 1083.8873863888273 0 A 1083.8873863888273 1083.8873863888273 0 0 1 1056.7120666522728 241.18763352271046 L 1053.8521826976537 240.53488367255548 A 1080.9539551895716 1080.9539551895716 0 0 1 973.9058612617906 469.0083438915647 L 969.7934638896998 467.0279176947149 A 1076.3895384615385 1076.3895384615385 0 0 1 841.555228568463 671.1179000581982 L 850.1103268866614 677.9403633062341 A 1087.3319199210216 1087.3319199210216 0 0 1 677.9403633062342 850.1103268866614 L 678.8842295149342 851.2938976764314 A 1088.8457637816368 1088.8457637816368 0 0 1 472.4324713118901 981.0161351146862 L 472.5018669326798 981.1602366060845 A 1089.0057043706315 1089.0057043706315 0 0 1 242.326566420307 1061.702057716156 L 242.0815497231535 1060.6285694256007 A 1087.9046093284833 1087.9046093284833 0 0 1 6.661494487958895e-14 1087.9046093284833 L 6.642414380977803e-14 1084.7885913885555 A 1084.7885913885555 1084.7885913885555 0 0 1 -241.388170500936 1057.5906765611057 L -241.23473791277283 1056.918444469594 A 1084.099071596259 1084.099071596259 0 0 1 -470.3729587580581 976.739513230145 L -468.5193948648234 972.8905481459293 A 1079.8270426490471 1079.8270426490471 0 0 1 -673.2611488629566 844.2427775633731 L -674.398241747405 845.6686469407099 A 1081.6507980353558 1081.6507980353558 0 0 1 -845.6686469407097 674.3982417474051 L -845.8475465705657 674.5409094414962 A 1081.8796192504997 1081.8796192504997 0 0 1 -974.7398557628228 469.40997447548705 L -976.5001677854073 470.25769606674544 A 1083.8334181943885 1083.8334181943885 0 0 1 -1056.6594515531444 241.17562446968012 L -1057.8524668858865 241.4479224342259 A 1085.0571141393248 1085.0571141393248 0 0 1 -1085.0571141393248 1.3288117217227884e-13 L -1084.3828064331244 1.3279859329487496e-13 A 1084.3828064331244 1084.3828064331244 0 0 1 -1057.1950654817126 -241.29787485366802 L -1072.420703400006 -244.7730273519457 A 1100 1100 0 0 1 -991.065754692661 -477.2721130293138 L -951.814269439633 -458.36959398095746 A 1056.434138124649 1056.434138124649 0 0 1 -825.9534683398299 -658.6759114561391 L -847.4991953525156 -675.8580553928808 A 1083.992157334456 1083.992157334456 0 0 1 -675.8580553928812 -847.4991953525154 L -671.3343064037898 -841.826593542653 A 1076.7366272911331 1076.7366272911331 0 0 1 -467.1785138939056 -970.1061801195611 L -462.4270000861289 -960.2395600316038 A 1065.785505183076 1065.785505183076 0 0 1 -237.15958601044065 -1039.0640374017864 L -238.8683098979613 -1046.5504459051895 A 1073.4644406303635 1073.4644406303635 0 0 1 -1.9719221868247177e-13 -1073.4644406303635 L -1.6900125828233473e-13 -920 A 920 920 1 1 0 920 0 Z"/></g><g id="event_catcher_4"><path id="path_event" class="path_event" fill="#ffffff" shape-rendering="auto" stroke-width="0" d="M 920 0 A 920 920 0 1 1 -1.6900125828233473e-13 -920 L -2.0206672185931327e-13 -1100 A 1100 1100 0 1 0 1100 0 Z" fill-opacity="0"/></g><g id="layer_background_5"><path id="path_all" class="path_all" fill="#414141" shape-rendering="auto" stroke-width="0" d="M 1115 0 A 1115 1115 0 1 1 -2.048221771573948e-13 -1115 L -2.1951793874716304e-13 -1195 A 1195 1195 0 1 0 1195 0 Z" fill-opacity="0.3" pointer-events="none"/></g><g id="layer_5"><path shape-rendering="auto" pointer-events="none" fill="#414141" stroke-width="0" d="M 1115 0 L 1195 0 A 1195 1195 0 0 1 1165.0388550572793 265.9125160777957 L 1150.6919602638359 262.6379309634302 A 1180.284148074768 1180.284148074768 0 0 1 1063.3992726940949 512.106099387862 L 1065.0142098537626 512.883812134927 A 1182.0765930939033 1182.0765930939033 0 0 1 924.1846951693644 737.0127008099645 L 918.1592404368769 732.2075610048901 A 1174.3697472228891 1174.3697472228891 0 0 1 732.2075610048902 918.1592404368769 L 731.331935393639 917.0612406497262 A 1172.9653527826902 1172.9653527826902 0 0 1 508.9305931206993 1056.805265985382 L 509.19531147031677 1057.354959302428 A 1173.5754663355876 1173.5754663355876 0 0 1 261.1451088372122 1144.1514791823645 L 261.5561693261305 1145.9524528575882 A 1175.4227554045747 1175.4227554045747 0 0 1 7.197388575255873e-14 1175.4227554045747 L 7.1883532912267e-14 1173.9471815435293 A 1173.9471815435293 1173.9471815435293 0 0 1 -261.227823252449 1144.5138747139692 L -261.49081235661106 1145.6661052645456 A 1175.1290438496333 1175.1290438496333 0 0 1 -509.8693834911197 1058.7546842764564 L -510.2327366087544 1059.509194799736 A 1175.9664873509123 1175.9664873509123 0 0 1 -733.2031121909312 919.4076221382855 L -733.6252793907282 919.9370030626932 A 1176.643590967585 1176.643590967585 0 0 1 -919.9370030626928 733.6252793907283 L -916.4598510601982 730.8523431996396 A 1172.196146626359 1172.196146626359 0 0 1 -1056.1122351855286 508.59684707743816 L -1056.7410147726223 508.8996513674068 A 1172.8940393166554 1172.8940393166554 0 0 1 -1143.4871369614925 260.9934770605364 L -1143.206927431347 260.92952106381875 A 1172.6066236763354 1172.6066236763354 0 0 1 -1172.6066236763354 1.436028948344209e-13 L -1173.5274819439032 1.4371566744740545e-13 A 1173.5274819439032 1173.5274819439032 0 0 1 -1144.1046978595623 -261.1344313055591 L -1155.5569307519859 -263.748328730451 A 1185.2742303437867 1185.2742303437867 0 0 1 -1067.8951814667528 -514.2712149412479 L -1013.8701605581454 -488.2541360911166 A 1125.310980964943 1125.310980964943 0 0 1 -879.8035524853743 -701.6199205512892 L -886.6044493241066 -707.0434548007125 A 1134.0096545170281 1134.0096545170281 0 0 1 -707.043454800713 -886.6044493241063 L -708.4874622117785 -888.4151773448735 A 1136.3256625844588 1136.3256625844588 0 0 1 -493.03322733738185 -1023.7940457871861 L -492.40601236179396 -1022.491620470127 A 1134.880079542182 1134.880079542182 0 0 1 -252.53457522814296 -1106.4262665248016 L -251.9490691604349 -1103.860996830794 A 1132.2488391581965 1132.2488391581965 0 0 1 -2.0799073750700872e-13 -1132.2488391581965 L -2.048221771573948e-13 -1115 A 1115 1115 1 1 0 1115 0 Z"/></g><g id="event_catcher_5"><path id="path_event" class="path_event" fill="#ffffff" shape-rendering="auto" stroke-width="0" d="M 1115 0 A 1115 1115 0 1 1 -2.048221771573948e-13 -1115 L -2.1951793874716304e-13 -1195 A 1195 1195 0 1 0 1195 0 Z" fill-opacity="0"/></g><g id="layer_background_6"><path id="path_all" class="path_all" fill="#141414" shape-rendering="auto" stroke-width="0" d="M 1210 0 A 1210 1210 0 1 1 -2.222733940452446e-13 -1210 L -2.773825000068755e-13 -1510 A 1510 1510 0 1 0 1510 0 Z" fill-opacity="0.3" pointer-events="none"/></g><g id="layer_6"><path shape-rendering="auto" pointer-events="none" fill="#141414" stroke-width="0" d="M 1210 0 L 1510 0 A 1510 1510 0 0 1 1472.1411473945536 336.00661027403476 L 1442.0213717747854 329.1319680387271 A 1479.1056382288182 1479.1056382288182 0 0 1 1332.6281323831035 641.7598848645819 L 1326.3499596732715 638.7364762350368 A 1472.1373922288778 1472.1373922288778 0 0 1 1150.9633597629231 917.8626509896156 L 1154.1575965749626 920.4099698450058 A 1476.222974459407 1476.222974459407 0 0 1 920.409969845006 1154.1575965749626 L 920.3778873062389 1154.1173663438171 A 1476.1715180624115 1476.1715180624115 0 0 1 640.4868178357611 1329.9845814584862 L 640.8251019514142 1330.6870356627605 A 1476.9511834085733 1476.9511834085733 0 0 1 328.6525567399596 1439.920933634994 L 328.63876071416485 1439.860489296633 A 1476.889184631427 1476.889184631427 0 0 1 9.043338063271107e-14 1476.889184631427 L 9.043621163183194e-14 1476.9354183556786 A 1476.9354183556786 1476.9354183556786 0 0 1 -328.64904868566543 1439.90556384489 L -328.75964136461454 1440.3901020304595 A 1477.4324173435168 1477.4324173435168 0 0 1 -641.0339015304976 1331.1206124563228 L -641.8233983989903 1332.7600195962748 A 1479.2520219917537 1479.2520219917537 0 0 1 -922.2985500907694 1156.5258012976435 L -922.3884879664485 1156.6385798265987 A 1479.396271144524 1479.396271144524 0 0 1 -1156.6385798265985 922.3884879664486 L -1156.0960422204812 921.9558286631022 A 1478.702339500323 1478.702339500323 0 0 1 -1332.2647727842646 641.5849001042811 L -1331.3105184234373 641.1253554242204 A 1477.6431970650813 1477.6431970650813 0 0 1 -1440.5955970643347 328.8065442651164 L -1441.9058572158883 329.1056025944619 A 1478.9871529978038 1478.9871529978038 0 0 1 -1478.9871529978038 1.8112368828988173e-13 L -1478.8903774562027 1.8111183670415597e-13 A 1478.8903774562027 1478.8903774562027 0 0 1 -1441.811508039165 -329.0840680105604 L -1424.1467637294688 -325.05220539510174 A 1460.7713513323497 1460.7713513323497 0 0 1 -1316.109510674194 -633.8049359118879 L -1124.0336026884027 -541.3060537415205 A 1247.5831771027886 1247.5831771027886 0 0 1 -975.3998048564479 -777.8553878941067 L -1001.8053975067969 -798.9131453504289 A 1281.3571977740894 1281.3571977740894 0 0 1 -798.9131453504292 -1001.8053975067967 L -819.6613192761167 -1027.8227846885363 A 1314.634685014191 1314.634685014191 0 0 1 -570.3986127075907 -1184.444923862489 L -561.7260407874905 -1166.4361427070885 A 1294.6464459118486 1294.6464459118486 0 0 1 -288.0859362875279 -1262.1869565264567 L -285.9161121018067 -1252.6803356185917 A 1284.8953445339118 1284.8953445339118 0 0 1 -2.360314456384186e-13 -1284.8953445339118 L -2.222733940452446e-13 -1210 A 1210 1210 1 1 0 1210 0 Z"/></g><g id="event_catcher_6"><path id="path_event" class="path_event" fill="#ffffff" shape-rendering="auto" stroke-width="0" d="M 1210 0 A 1210 1210 0 1 1 -2.222733940452446e-13 -1210 L -2.773825000068755e-13 -1510 A 1510 1510 0 1 0 1510 0 Z" fill-opacity="0"/></g><g id="layer_background_7"><path id="path_all" class="path_all" fill="#000000" shape-rendering="auto" stroke-width="0" d="M 1525 0 A 1525 1525 0 1 1 -2.8013795530495704e-13 -1525 L -3.132034188819356e-13 -1705 A 1705 1705 0 1 0 1705 0 Z" fill-opacity="0.3" pointer-events="none"/></g><g id="layer_7"><path shape-rendering="auto" pointer-events="none" fill="#000000" stroke-width="0" d="M 1525 0 L 1705 0 A 1705 1705 0 0 1 1662.2520902700094 379.39819239551605 L 1642.1541803577857 374.8109756091699 A 1684.3852348864996 1684.3852348864996 0 0 1 1517.5786581872399 730.8273638269609 L 1515.7953562311145 729.968570867221 A 1682.4059190414614 1682.4059190414614 0 0 1 1315.357913797174 1048.9629331091212 L 1315.9356874030514 1049.423692184607 A 1683.1449192209548 1683.1449192209548 0 0 1 1049.4236921846073 1315.9356874030514 L 1049.1066005370706 1315.5380670536363 A 1682.6363437052185 1682.6363437052185 0 0 1 730.0685483819169 1516.0029616795564 L 730.1645033068428 1516.2022141342713 A 1682.8574972453832 1682.8574972453832 0 0 1 374.4710220024285 1640.6647462889705 L 374.46288978473115 1640.629116715248 A 1682.820951390785 1682.820951390785 0 0 1 1.0304306458294142e-13 1682.820951390785 L 1.030684543929915e-13 1683.235598455845 A 1683.235598455845 1683.235598455845 0 0 1 -374.55515743691035 1641.0333677126794 L -374.5762689128558 1641.1258631323267 A 1683.3304725675528 1683.3304725675528 0 0 1 -730.3697196081358 1516.6283501748323 L -730.7636792681377 1517.4464158382127 A 1684.2384569525016 1684.2384569525016 0 0 1 -1050.1055018081743 1316.7906496288415 L -1050.017607280547 1316.6804333772993 A 1684.0974850755515 1684.0974850755515 0 0 1 -1316.6804333772989 1050.017607280547 L -1316.7003786650516 1050.0335131167635 A 1684.1229960561145 1684.1229960561145 0 0 1 -1517.3423891651075 730.7135826626917 L -1516.8120529275016 730.4581861912268 A 1683.5343672405143 1683.5343672405143 0 0 1 -1641.3246457401422 374.6216397459122 L -1642.0264304587922 374.7818175283708 A 1684.2541996608206 1684.2541996608206 0 0 1 -1684.2541996608206 2.0626165145651111e-13 L -1684.159627598649 2.062500697191884e-13 A 1684.159627598649 1684.159627598649 0 0 1 -1641.9342295156684 -374.7607732647698 L -1634.2074841756407 -372.99719406263404 A 1676.23417460517 1676.23417460517 0 0 1 -1510.234806633366 -727.2907513143248 L -1393.766876547273 -671.2027522798126 A 1546.9645247478484 1546.9645247478484 0 0 1 -1209.4655677090616 -964.5166050175256 L -1223.6278046617006 -975.8106121143022 A 1565.078705706554 1565.078705706554 0 0 1 -975.8106121143028 -1223.6278046617003 L -989.7607298546568 -1241.1206990138292 A 1587.4529573763748 1587.4529573763748 0 0 1 -688.7700248196874 -1430.2456938557395 L -683.3794188076723 -1419.0519851312986 A 1575.0288780066833 1575.0288780066833 0 0 1 -350.47689694221344 -1535.539615661136 L -348.9789237499326 -1528.9765662846607 A 1568.2970475867423 1568.2970475867423 0 0 1 -2.880914939159022e-13 -1568.2970475867423 L -2.8013795530495704e-13 -1525 A 1525 1525 1 1 0 1525 0 Z"/></g><g id="event_catcher_7"><path id="path_event" class="path_event" fill="#ffffff" shape-rendering="auto" stroke-width="0" d="M 1525 0 A 1525 1525 0 1 1 -2.8013795530495704e-13 -1525 L -3.132034188819356e-13 -1705 A 1705 1705 0 1 0 1705 0 Z" fill-opacity="0"/></g><g id="layer_background_8"><path id="path_all" class="path_all" fill="#141414" shape-rendering="auto" stroke-width="0" d="M 1705 0 A 1705 1705 0 1 1 -3.132034188819356e-13 -1705 L -3.132034188819356e-13 -1705 A 1705 1705 0 1 0 1705 0 Z" fill-opacity="0.3" pointer-events="none"/></g><g id="layer_8"/><g id="event_catcher_8"><path id="path_event" class="path_event" fill="#ffffff" shape-rendering="auto" stroke-width="0" d="M 1705 0 A 1705 1705 0 1 1 -3.132034188819356e-13 -1705 L -3.132034188819356e-13 -1705 A 1705 1705 0 1 0 1705 0 Z" fill-opacity="0"/></g><g id="layer_background_9"><path id="path_all" class="path_all" fill="#141414" shape-rendering="auto" stroke-width="0" d="M 1705 0 A 1705 1705 0 1 1 -3.132034188819356e-13 -1705 L -3.132034188819356e-13 -1705 A 1705 1705 0 1 0 1705 0 Z" fill-opacity="0.3" pointer-events="none"/></g><g id="layer_9"/><g id="event_catcher_9"><path id="path_event" class="path_event" fill="#ffffff" shape-rendering="auto" stroke-width="0" d="M 1705 0 A 1705 1705 0 1 1 -3.132034188819356e-13 -1705 L -3.132034188819356e-13 -1705 A 1705 1705 0 1 0 1705 0 Z" fill-opacity="0"/></g><g id="layer_background_10"><path id="path_all" class="path_all" fill="#616161" shape-rendering="auto" stroke-width="0" d="M 1705 0 A 1705 1705 0 1 1 -3.132034188819356e-13 -1705 L -3.132034188819356e-13 -1705 A 1705 1705 0 1 0 1705 0 Z" fill-opacity="0.3" pointer-events="none"/></g><g id="layer_10"/><g id="event_catcher_10"><path id="path_event" class="path_event" fill="#ffffff" shape-rendering="auto" stroke-width="0" d="M 1705 0 A 1705 1705 0 1 1 -3.132034188819356e-13 -1705 L -3.132034188819356e-13 -1705 A 1705 1705 0 1 0 1705 0 Z" fill-opacity="0"/></g><g id="layer_background_11"><path id="path_all" class="path_all" fill="#818181" shape-rendering="auto" stroke-width="0" d="M 1705 0 A 1705 1705 0 1 1 -3.132034188819356e-13 -1705 L -3.132034188819356e-13 -1705 A 1705 1705 0 1 0 1705 0 Z" fill-opacity="0.3" pointer-events="none"/></g><g id="layer_11"/><g id="event_catcher_11"><path id="path_event" class="path_event" fill="#ffffff" shape-rendering="auto" stroke-width="0" d="M 1705 0 A 1705 1705 0 1 1 -3.132034188819356e-13 -1705 L -3.132034188819356e-13 -1705 A 1705 1705 0 1 0 1705 0 Z" fill-opacity="0"/></g><g id="layer_background_12"><path id="path_all" class="path_all" fill="#4a000f" shape-rendering="auto" stroke-width="0" d="M 1720 0 A 1720 1720 0 1 1 -3.159588741800171e-13 -1720 L -3.4902433775699563e-13 -1900 A 1900 1900 0 1 0 1900 0 Z" fill-opacity="0.3" pointer-events="none"/></g><g id="layer_12"/><g id="event_catcher_12"><path id="path_event" class="path_event" fill="#ffffff" shape-rendering="auto" stroke-width="0" d="M 1720 0 A 1720 1720 0 1 1 -3.159588741800171e-13 -1720 L -3.4902433775699563e-13 -1900 A 1900 1900 0 1 0 1900 0 Z" fill-opacity="0"/></g><g id="layer_labels"><text style="alignment-baseline:baseline; font-size:50px" x="-1.2185235651516165e-13" y="-663.3333333333334" pointer-events="none" text-rendering="optimizeLegibility" font-family="Helvetica Neue, Helvetica, Arial, sans-serif;" text-anchor="start" transform="rotate(360 -1.2185235651516165e-13 -663.3333333333334)"> Parent</text><text fill="#000000" style="alignment-baseline:baseline; font-size:90px" x="-1.350173096059957e-13" y="-735" pointer-events="none" text-rendering="optimizeLegibility" font-family="Helvetica Neue, Helvetica, Arial, sans-serif;" text-anchor="start" transform="rotate(360 -1.350173096059957e-13 -735)"> Taxonomy</text><text fill="#414141" style="alignment-baseline:baseline; font-size:80px" x="-1.5399933499277966e-13" y="-838.3333333333334" pointer-events="none" text-rendering="optimizeLegibility" font-family="Helvetica Neue, Helvetica, Arial, sans-serif;" text-anchor="start" transform="rotate(360 -1.5399933499277966e-13 -838.3333333333334)"> Length</text><text fill="#004a0f" style="alignment-baseline:baseline; font-size:120px" x="-1.7818610927593987e-13" y="-970" pointer-events="none" text-rendering="optimizeLegibility" font-family="Helvetica Neue, Helvetica, Arial, sans-serif;" text-anchor="start" transform="rotate(360 -1.7818610927593987e-13 -970)"> GC-content</text><text fill="#414141" style="alignment-baseline:baseline; font-size:80px" x="-2.072714707556895e-13" y="-1128.3333333333333" pointer-events="none" text-rendering="optimizeLegibility" font-family="Helvetica Neue, Helvetica, Arial, sans-serif;" text-anchor="start" transform="rotate(360 -2.072714707556895e-13 -1128.3333333333333)"> Coverage STD</text><text fill="#141414" style="alignment-baseline:baseline; font-size:120px" x="-2.424800662311759e-13" y="-1320" pointer-events="none" text-rendering="optimizeLegibility" font-family="Helvetica Neue, Helvetica, Arial, sans-serif;" text-anchor="start" transform="rotate(360 -2.424800662311759e-13 -1320)"> Mean coverage</text><text fill="#000000" style="alignment-baseline:baseline; font-size:120px" x="-2.8932280629856215e-13" y="-1575" pointer-events="none" text-rendering="optimizeLegibility" font-family="Helvetica Neue, Helvetica, Arial, sans-serif;" text-anchor="start" transform="rotate(360 -2.8932280629856215e-13 -1575)"> mean coverage Q2Q3</text><text fill="#4a000f" style="alignment-baseline:baseline; font-size:120px" x="-3.2514372517362225e-13" y="-1770" pointer-events="none" text-rendering="optimizeLegibility" font-family="Helvetica Neue, Helvetica, Arial, sans-serif;" text-anchor="start" transform="rotate(360 -3.2514372517362225e-13 -1770)"> Variablity</text></g><g id="bin"><path id="path_bin_outer_0" class="path_bin_outer_0" fill="#14027a" shape-rendering="auto" stroke-width="0" d="M 1930 0 A 1930 1930 0 1 1 -1881.6108705109195 -429.46540253568656 L -1940.106545241829 -442.8166585730654 A 1990 1990 0 1 0 1990 0 Z" fill-opacity="1"/><text style="alignment-baseline: baseline" x="-182.09038696502046" y="1997.1701318163593" pointer-events="none" font-size="128px" font-family="HelveticaNeue-CondensedBold, Helvetica Neue, Helvetica, sans-serif" fill="#14027a" text-anchor="end" transform="rotate(276.42857142857144 -182.09038696502046 1997.1701318163593)">L304 S_6D_001_1</text><path id="path_bin_background_0" class="path_bin_background_0" fill="#14027a" shape-rendering="auto" stroke-width="0" d="M 655 0 A 655 655 0 1 1 -638.5777824790945 -145.75121174138584 L -1852.363033145465 -422.7897745169971 A 1900 1900 0 1 0 1900 0 Z" fill-opacity="0.1" pointer-events="none"/></g></g><g id="samples"><rect id="label_gradient1" fill="url(#gradient1)" x="255" y="-1900" width="410" height="1900" stroke-width="0px"/><rect id="label_gradient2" fill="#ffffff" x="655" y="-1900" width="1245" height="1900" stroke-width="0px" pointer-events="none"/><g id="samples_tree"/></g><g id="bin_legend"><rect fill="white" stroke-width="1" stroke="black" x="-2310" y="-1900" width="300" height="90"/><text style="alignment-baseline:middle; font-size:16px" x="-2300" y="-1880" pointer-events="none" text-rendering="optimizeLegibility" font-family="Helvetica Neue, Helvetica, Arial, sans-serif;" text-anchor="start">Bins</text><text style="alignment-baseline:middle; font-size:10px" x="-2300" y="-1852" pointer-events="none" text-rendering="optimizeLegibility" font-family="Helvetica Neue, Helvetica, Arial, sans-serif;" text-anchor="start">Color</text><text style="alignment-baseline:middle; font-size:10px" x="-2270" y="-1852" pointer-events="none" text-rendering="optimizeLegibility" font-family="Helvetica Neue, Helvetica, Arial, sans-serif;" text-anchor="start">Name</text><text style="alignment-baseline:middle; font-size:10px" x="-2130" y="-1852" pointer-events="none" text-rendering="optimizeLegibility" font-family="Helvetica Neue, Helvetica, Arial, sans-serif;" text-anchor="start">Contigs</text><text style="alignment-baseline:middle; font-size:10px" x="-2070" y="-1852" pointer-events="none" text-rendering="optimizeLegibility" font-family="Helvetica Neue, Helvetica, Arial, sans-serif;" text-anchor="start">Length</text><rect fill="#14027a" stroke-width="1" stroke="black" x="-2300" y="-1840" width="16" height="16"/><text style="alignment-baseline:middle; font-size:12px" x="-2270" y="-1832" pointer-events="none" text-rendering="optimizeLegibility" font-family="Helvetica Neue, Helvetica, Arial, sans-serif;" text-anchor="start">L304_S_6D_001_1</text><text style="alignment-baseline:middle; font-size:12px" x="-2130" y="-1832" pointer-events="none" text-rendering="optimizeLegibility" font-family="Helvetica Neue, Helvetica, Arial, sans-serif;" text-anchor="start">undefined</text><text style="alignment-baseline:middle; font-size:12px" x="-2070" y="-1832" pointer-events="none" text-rendering="optimizeLegibility" font-family="Helvetica Neue, Helvetica, Arial, sans-serif;" text-anchor="start">undefined</text></g><g id="layer_legend"><rect fill="white" stroke-width="1" stroke="black" x="-2310" y="-1730" width="300" height="310"/><text style="alignment-baseline:middle; font-size:16px" x="-2300" y="-1710" pointer-events="none" text-rendering="optimizeLegibility" font-family="Helvetica Neue, Helvetica, Arial, sans-serif;" text-anchor="start">Layers</text><text style="alignment-baseline:middle; font-size:10px" x="-2300" y="-1682" pointer-events="none" text-rendering="optimizeLegibility" font-family="Helvetica Neue, Helvetica, Arial, sans-serif;" text-anchor="start">Color</text><text style="alignment-baseline:middle; font-size:10px" x="-2270" y="-1682" pointer-events="none" text-rendering="optimizeLegibility" font-family="Helvetica Neue, Helvetica, Arial, sans-serif;" text-anchor="start">Name</text><text style="alignment-baseline:middle; font-size:10px" x="-2180" y="-1682" pointer-events="none" text-rendering="optimizeLegibility" font-family="Helvetica Neue, Helvetica, Arial, sans-serif;" text-anchor="start">Norm.</text><text style="alignment-baseline:middle; font-size:10px" x="-2140" y="-1682" pointer-events="none" text-rendering="optimizeLegibility" font-family="Helvetica Neue, Helvetica, Arial, sans-serif;" text-anchor="start">Height</text><text style="alignment-baseline:middle; font-size:10px" x="-2100" y="-1682" pointer-events="none" text-rendering="optimizeLegibility" font-family="Helvetica Neue, Helvetica, Arial, sans-serif;" text-anchor="start">Min</text><text style="alignment-baseline:middle; font-size:10px" x="-2055" y="-1682" pointer-events="none" text-rendering="optimizeLegibility" font-family="Helvetica Neue, Helvetica, Arial, sans-serif;" text-anchor="start">Max</text><text style="alignment-baseline:middle; font-size:12px" x="-2270" y="-1662" pointer-events="none" text-rendering="optimizeLegibility" font-family="Helvetica Neue, Helvetica, Arial, sans-serif;" text-anchor="start">__parent__</text><text style="alignment-baseline:middle; font-size:12px" x="-2180" y="-1662" pointer-events="none" text-rendering="optimizeLegibility" font-family="Helvetica Neue, Helvetica, Arial, sans-serif;" text-anchor="start">-</text><text style="alignment-baseline:middle; font-size:12px" x="-2140" y="-1662" pointer-events="none" text-rendering="optimizeLegibility" font-family="Helvetica Neue, Helvetica, Arial, sans-serif;" text-anchor="start">50</text><text style="alignment-baseline:middle; font-size:12px" x="-2100" y="-1662" pointer-events="none" text-rendering="optimizeLegibility" font-family="Helvetica Neue, Helvetica, Arial, sans-serif;" text-anchor="start">-</text><text style="alignment-baseline:middle; font-size:12px" x="-2055" y="-1662" pointer-events="none" text-rendering="optimizeLegibility" font-family="Helvetica Neue, Helvetica, Arial, sans-serif;" text-anchor="start">-</text><rect fill="#000000" stroke-width="1" stroke="black" x="-2300" y="-1650" width="16" height="16"/><text style="alignment-baseline:middle; font-size:12px" x="-2270" y="-1642" pointer-events="none" text-rendering="optimizeLegibility" font-family="Helvetica Neue, Helvetica, Arial, sans-serif;" text-anchor="start">taxonomy</text><text style="alignment-baseline:middle; font-size:12px" x="-2180" y="-1642" pointer-events="none" text-rendering="optimizeLegibility" font-family="Helvetica Neue, Helvetica, Arial, sans-serif;" text-anchor="start">-</text><text style="alignment-baseline:middle; font-size:12px" x="-2140" y="-1642" pointer-events="none" text-rendering="optimizeLegibility" font-family="Helvetica Neue, Helvetica, Arial, sans-serif;" text-anchor="start">90</text><text style="alignment-baseline:middle; font-size:12px" x="-2100" y="-1642" pointer-events="none" text-rendering="optimizeLegibility" font-family="Helvetica Neue, Helvetica, Arial, sans-serif;" text-anchor="start">-</text><text style="alignment-baseline:middle; font-size:12px" x="-2055" y="-1642" pointer-events="none" text-rendering="optimizeLegibility" font-family="Helvetica Neue, Helvetica, Arial, sans-serif;" text-anchor="start">-</text><rect fill="#414141" stroke-width="1" stroke="black" x="-2300" y="-1630" width="16" height="16"/><text style="alignment-baseline:middle; font-size:12px" x="-2270" y="-1622" pointer-events="none" text-rendering="optimizeLegibility" font-family="Helvetica Neue, Helvetica, Arial, sans-serif;" text-anchor="start">length</text><text style="alignment-baseline:middle; font-size:12px" x="-2180" y="-1622" pointer-events="none" text-rendering="optimizeLegibility" font-family="Helvetica Neue, Helvetica, Arial, sans-serif;" text-anchor="start">none</text><text style="alignment-baseline:middle; font-size:12px" x="-2140" y="-1622" pointer-events="none" text-rendering="optimizeLegibility" font-family="Helvetica Neue, Helvetica, Arial, sans-serif;" text-anchor="start">80</text><text style="alignment-baseline:middle; font-size:12px" x="-2100" y="-1622" pointer-events="none" text-rendering="optimizeLegibility" font-family="Helvetica Neue, Helvetica, Arial, sans-serif;" text-anchor="start">0</text><text style="alignment-baseline:middle; font-size:12px" x="-2055" y="-1622" pointer-events="none" text-rendering="optimizeLegibility" font-family="Helvetica Neue, Helvetica, Arial, sans-serif;" text-anchor="start">921137</text><rect fill="#004a0f" stroke-width="1" stroke="black" x="-2300" y="-1610" width="16" height="16"/><text style="alignment-baseline:middle; font-size:12px" x="-2270" y="-1602" pointer-events="none" text-rendering="optimizeLegibility" font-family="Helvetica Neue, Helvetica, Arial, sans-serif;" text-anchor="start">gc_content</text><text style="alignment-baseline:middle; font-size:12px" x="-2180" y="-1602" pointer-events="none" text-rendering="optimizeLegibility" font-family="Helvetica Neue, Helvetica, Arial, sans-serif;" text-anchor="start">none</text><text style="alignment-baseline:middle; font-size:12px" x="-2140" y="-1602" pointer-events="none" text-rendering="optimizeLegibility" font-family="Helvetica Neue, Helvetica, Arial, sans-serif;" text-anchor="start">180</text><text style="alignment-baseline:middle; font-size:12px" x="-2100" y="-1602" pointer-events="none" text-rendering="optimizeLegibility" font-family="Helvetica Neue, Helvetica, Arial, sans-serif;" text-anchor="start">0</text><text style="alignment-baseline:middle; font-size:12px" x="-2055" y="-1602" pointer-events="none" text-rendering="optimizeLegibility" font-family="Helvetica Neue, Helvetica, Arial, sans-serif;" text-anchor="start">0.5381</text><rect fill="#414141" stroke-width="1" stroke="black" x="-2300" y="-1590" width="16" height="16"/><text style="alignment-baseline:middle; font-size:12px" x="-2270" y="-1582" pointer-events="none" text-rendering="optimizeLegibility" font-family="Helvetica Neue, Helvetica, Arial, sans-serif;" text-anchor="start">std_covera...</text><text style="alignment-baseline:middle; font-size:12px" x="-2180" y="-1582" pointer-events="none" text-rendering="optimizeLegibility" font-family="Helvetica Neue, Helvetica, Arial, sans-serif;" text-anchor="start">log</text><text style="alignment-baseline:middle; font-size:12px" x="-2140" y="-1582" pointer-events="none" text-rendering="optimizeLegibility" font-family="Helvetica Neue, Helvetica, Arial, sans-serif;" text-anchor="start">80</text><text style="alignment-baseline:middle; font-size:12px" x="-2100" y="-1582" pointer-events="none" text-rendering="optimizeLegibility" font-family="Helvetica Neue, Helvetica, Arial, sans-serif;" text-anchor="start">0</text><text style="alignment-baseline:middle; font-size:12px" x="-2055" y="-1582" pointer-events="none" text-rendering="optimizeLegibility" font-family="Helvetica Neue, Helvetica, Arial, sans-serif;" text-anchor="start">2.3523</text><rect fill="#141414" stroke-width="1" stroke="black" x="-2300" y="-1570" width="16" height="16"/><text style="alignment-baseline:middle; font-size:12px" x="-2270" y="-1562" pointer-events="none" text-rendering="optimizeLegibility" font-family="Helvetica Neue, Helvetica, Arial, sans-serif;" text-anchor="start">mean_cover...</text><text style="alignment-baseline:middle; font-size:12px" x="-2180" y="-1562" pointer-events="none" text-rendering="optimizeLegibility" font-family="Helvetica Neue, Helvetica, Arial, sans-serif;" text-anchor="start">log</text><text style="alignment-baseline:middle; font-size:12px" x="-2140" y="-1562" pointer-events="none" text-rendering="optimizeLegibility" font-family="Helvetica Neue, Helvetica, Arial, sans-serif;" text-anchor="start">300</text><text style="alignment-baseline:middle; font-size:12px" x="-2100" y="-1562" pointer-events="none" text-rendering="optimizeLegibility" font-family="Helvetica Neue, Helvetica, Arial, sans-serif;" text-anchor="start">0</text><text style="alignment-baseline:middle; font-size:12px" x="-2055" y="-1562" pointer-events="none" text-rendering="optimizeLegibility" font-family="Helvetica Neue, Helvetica, Arial, sans-serif;" text-anchor="start">2.8476</text><rect fill="#000000" stroke-width="1" stroke="black" x="-2300" y="-1550" width="16" height="16"/><text style="alignment-baseline:middle; font-size:12px" x="-2270" y="-1542" pointer-events="none" text-rendering="optimizeLegibility" font-family="Helvetica Neue, Helvetica, Arial, sans-serif;" text-anchor="start">mean_cover...</text><text style="alignment-baseline:middle; font-size:12px" x="-2180" y="-1542" pointer-events="none" text-rendering="optimizeLegibility" font-family="Helvetica Neue, Helvetica, Arial, sans-serif;" text-anchor="start">log</text><text style="alignment-baseline:middle; font-size:12px" x="-2140" y="-1542" pointer-events="none" text-rendering="optimizeLegibility" font-family="Helvetica Neue, Helvetica, Arial, sans-serif;" text-anchor="start">180</text><text style="alignment-baseline:middle; font-size:12px" x="-2100" y="-1542" pointer-events="none" text-rendering="optimizeLegibility" font-family="Helvetica Neue, Helvetica, Arial, sans-serif;" text-anchor="start">0</text><text style="alignment-baseline:middle; font-size:12px" x="-2055" y="-1542" pointer-events="none" text-rendering="optimizeLegibility" font-family="Helvetica Neue, Helvetica, Arial, sans-serif;" text-anchor="start">2.8833</text><rect fill="#141414" stroke-width="1" stroke="black" x="-2300" y="-1530" width="16" height="16"/><text style="alignment-baseline:middle; font-size:12px" x="-2270" y="-1522" pointer-events="none" text-rendering="optimizeLegibility" font-family="Helvetica Neue, Helvetica, Arial, sans-serif;" text-anchor="start">max_normal...</text><text style="alignment-baseline:middle; font-size:12px" x="-2180" y="-1522" pointer-events="none" text-rendering="optimizeLegibility" font-family="Helvetica Neue, Helvetica, Arial, sans-serif;" text-anchor="start">log</text><text style="alignment-baseline:middle; font-size:12px" x="-2140" y="-1522" pointer-events="none" text-rendering="optimizeLegibility" font-family="Helvetica Neue, Helvetica, Arial, sans-serif;" text-anchor="start">0</text><text style="alignment-baseline:middle; font-size:12px" x="-2100" y="-1522" pointer-events="none" text-rendering="optimizeLegibility" font-family="Helvetica Neue, Helvetica, Arial, sans-serif;" text-anchor="start">0</text><text style="alignment-baseline:middle; font-size:12px" x="-2055" y="-1522" pointer-events="none" text-rendering="optimizeLegibility" font-family="Helvetica Neue, Helvetica, Arial, sans-serif;" text-anchor="start">0.3010</text><rect fill="#141414" stroke-width="1" stroke="black" x="-2300" y="-1510" width="16" height="16"/><text style="alignment-baseline:middle; font-size:12px" x="-2270" y="-1502" pointer-events="none" text-rendering="optimizeLegibility" font-family="Helvetica Neue, Helvetica, Arial, sans-serif;" text-anchor="start">relative_a...</text><text style="alignment-baseline:middle; font-size:12px" x="-2180" y="-1502" pointer-events="none" text-rendering="optimizeLegibility" font-family="Helvetica Neue, Helvetica, Arial, sans-serif;" text-anchor="start">log</text><text style="alignment-baseline:middle; font-size:12px" x="-2140" y="-1502" pointer-events="none" text-rendering="optimizeLegibility" font-family="Helvetica Neue, Helvetica, Arial, sans-serif;" text-anchor="start">0</text><text style="alignment-baseline:middle; font-size:12px" x="-2100" y="-1502" pointer-events="none" text-rendering="optimizeLegibility" font-family="Helvetica Neue, Helvetica, Arial, sans-serif;" text-anchor="start">0</text><text style="alignment-baseline:middle; font-size:12px" x="-2055" y="-1502" pointer-events="none" text-rendering="optimizeLegibility" font-family="Helvetica Neue, Helvetica, Arial, sans-serif;" text-anchor="start">0.3010</text><rect fill="#616161" stroke-width="1" stroke="black" x="-2300" y="-1490" width="16" height="16"/><text style="alignment-baseline:middle; font-size:12px" x="-2270" y="-1482" pointer-events="none" text-rendering="optimizeLegibility" font-family="Helvetica Neue, Helvetica, Arial, sans-serif;" text-anchor="start">detection</text><text style="alignment-baseline:middle; font-size:12px" x="-2180" y="-1482" pointer-events="none" text-rendering="optimizeLegibility" font-family="Helvetica Neue, Helvetica, Arial, sans-serif;" text-anchor="start">none</text><text style="alignment-baseline:middle; font-size:12px" x="-2140" y="-1482" pointer-events="none" text-rendering="optimizeLegibility" font-family="Helvetica Neue, Helvetica, Arial, sans-serif;" text-anchor="start">0</text><text style="alignment-baseline:middle; font-size:12px" x="-2100" y="-1482" pointer-events="none" text-rendering="optimizeLegibility" font-family="Helvetica Neue, Helvetica, Arial, sans-serif;" text-anchor="start">0</text><text style="alignment-baseline:middle; font-size:12px" x="-2055" y="-1482" pointer-events="none" text-rendering="optimizeLegibility" font-family="Helvetica Neue, Helvetica, Arial, sans-serif;" text-anchor="start">1</text><rect fill="#818181" stroke-width="1" stroke="black" x="-2300" y="-1470" width="16" height="16"/><text style="alignment-baseline:middle; font-size:12px" x="-2270" y="-1462" pointer-events="none" text-rendering="optimizeLegibility" font-family="Helvetica Neue, Helvetica, Arial, sans-serif;" text-anchor="start">abundance</text><text style="alignment-baseline:middle; font-size:12px" x="-2180" y="-1462" pointer-events="none" text-rendering="optimizeLegibility" font-family="Helvetica Neue, Helvetica, Arial, sans-serif;" text-anchor="start">none</text><text style="alignment-baseline:middle; font-size:12px" x="-2140" y="-1462" pointer-events="none" text-rendering="optimizeLegibility" font-family="Helvetica Neue, Helvetica, Arial, sans-serif;" text-anchor="start">0</text><text style="alignment-baseline:middle; font-size:12px" x="-2100" y="-1462" pointer-events="none" text-rendering="optimizeLegibility" font-family="Helvetica Neue, Helvetica, Arial, sans-serif;" text-anchor="start">0</text><text style="alignment-baseline:middle; font-size:12px" x="-2055" y="-1462" pointer-events="none" text-rendering="optimizeLegibility" font-family="Helvetica Neue, Helvetica, Arial, sans-serif;" text-anchor="start">1.9963</text><rect fill="#4a000f" stroke-width="1" stroke="black" x="-2300" y="-1450" width="16" height="16"/><text style="alignment-baseline:middle; font-size:12px" x="-2270" y="-1442" pointer-events="none" text-rendering="optimizeLegibility" font-family="Helvetica Neue, Helvetica, Arial, sans-serif;" text-anchor="start">variabilit...</text><text style="alignment-baseline:middle; font-size:12px" x="-2180" y="-1442" pointer-events="none" text-rendering="optimizeLegibility" font-family="Helvetica Neue, Helvetica, Arial, sans-serif;" text-anchor="start">none</text><text style="alignment-baseline:middle; font-size:12px" x="-2140" y="-1442" pointer-events="none" text-rendering="optimizeLegibility" font-family="Helvetica Neue, Helvetica, Arial, sans-serif;" text-anchor="start">180</text><text style="alignment-baseline:middle; font-size:12px" x="-2100" y="-1442" pointer-events="none" text-rendering="optimizeLegibility" font-family="Helvetica Neue, Helvetica, Arial, sans-serif;" text-anchor="start">0</text><text style="alignment-baseline:middle; font-size:12px" x="-2055" y="-1442" pointer-events="none" text-rendering="optimizeLegibility" font-family="Helvetica Neue, Helvetica, Arial, sans-serif;" text-anchor="start">0</text></g><g id="title_group"><text style="alignment-baseline:middle; font-size:107.5px" x="0" y="-2221.25" pointer-events="none" text-rendering="optimizeLegibility" font-family="Helvetica Neue, Helvetica, Arial, sans-serif;" text-anchor="middle">L304_S_6D_001</text><text style="alignment-baseline:middle; font-size:53.75px" x="0" y="-2113.75" pointer-events="none" text-rendering="optimizeLegibility" font-family="Helvetica Neue, Helvetica, Arial, sans-serif;" text-anchor="middle">Items order: Sequence composition (D: Euclidean; L: Ward) | Current view: single | Samples order: custom</text></g><g id="legend_group"><g id="legend_0"><rect fill="#64db6e" stroke-width="1" stroke="black" x="-2310" y="3069.22705078125" width="53.75" height="53.75"/><text fill="#000000" style="alignment-baseline:baseline; font-size:53.75px" x="-2229.375" y="3109.53955078125" pointer-events="none" text-rendering="optimizeLegibility" font-family="Helvetica Neue, Helvetica, Arial, sans-serif;" text-anchor="start">Chlorobiaceae (15)</text><rect fill="#aca5ef" stroke-width="1" stroke="black" x="-1752.953125" y="3069.22705078125" width="53.75" height="53.75"/><text fill="#000000" style="alignment-baseline:baseline; font-size:53.75px" x="-1672.328125" y="3109.53955078125" pointer-events="none" text-rendering="optimizeLegibility" font-family="Helvetica Neue, Helvetica, Arial, sans-serif;" text-anchor="start">Desulfovibrionaceae (1)</text><rect fill="#FFFFFF" stroke-width="1" stroke="black" x="-1085.546875" y="3069.22705078125" width="53.75" height="53.75"/><text fill="#000000" style="alignment-baseline:baseline; font-size:53.75px" x="-1004.921875" y="3109.53955078125" pointer-events="none" text-rendering="optimizeLegibility" font-family="Helvetica Neue, Helvetica, Arial, sans-serif;" text-anchor="start">None (5)</text><text style="alignment-baseline:middle; font-size:107.5px" x="-2363.75" y="3096.10205078125" pointer-events="none" text-rendering="optimizeLegibility" font-family="Helvetica Neue, Helvetica, Arial, sans-serif;" text-anchor="end">Taxonomy</text></g></g></g></svg>